<svg width="400" height="400" viewBox="0 0 400 400" xmlns="http://www.w3.org/2000/svg">
<defs>
    <filter id="shadow" x="-20%" y="-20%" width="140%" height="140%">
        <feDropShadow dx="2" dy="4" stdDeviation="3" flood-opacity="0.3"/>
    </filter>
    <filter id="glow" x="-50%" y="-50%" width="200%" height="200%">
        <feGaussianBlur stdDeviation="8" result="blur"/>
        <feMerge><feMergeNode in="blur"/><feMergeNode in="SourceGraphic"/></feMerge>
    </filter>
    <linearGradient id="rainbow-body" x1="0%" y1="0%" x2="100%" y2="100%">
        <stop offset="0%" stop-color="#FF6B6B"/><stop offset="25%" stop-color="#FFE66D"/>
        <stop offset="50%" stop-color="#4ECDC4"/><stop offset="75%" stop-color="#45B7D1"/>
        <stop offset="100%" stop-color="#DDA0DD"/>
    </linearGradient>
    <radialGradient id="galaxy-body" cx="30%" cy="30%">
        <stop offset="0%" stop-color="#E6E6FA"/><stop offset="50%" stop-color="#9370DB"/>
        <stop offset="100%" stop-color="#1A0033"/>
    </radialGradient>
    <linearGradient id="holo-body" x1="0%" y1="0%" x2="100%" y2="100%">
        <stop offset="0%" stop-color="#FF00FF"/><stop offset="50%" stop-color="#00FFFF"/>
        <stop offset="100%" stop-color="#FFFF00"/>
    </linearGradient>
    <linearGradient id="sky-gradient" x1="0%" y1="0%" x2="0%" y2="100%">
        <stop offset="0%" stop-color="#87CEEB"/><stop offset="100%" stop-color="#E0F4FF"/>
    </linearGradient>
    <linearGradient id="grass-gradient" x1="0%" y1="0%" x2="0%" y2="100%">
        <stop offset="0%" stop-color="#90EE90"/><stop offset="100%" stop-color="#228B22"/>
    </linearGradient>
    <linearGradient id="sunset-gradient" x1="0%" y1="0%" x2="0%" y2="100%">
        <stop offset="0%" stop-color="#FF6B6B"/><stop offset="50%" stop-color="#FFE66D"/>
        <stop offset="100%" stop-color="#4ECDC4"/>
    </linearGradient>
    <linearGradient id="aurora-gradient" x1="0%" y1="0%" x2="100%" y2="100%">
        <stop offset="0%" stop-color="#0D1B2A"/><stop offset="30%" stop-color="#00FF7F"/>
        <stop offset="70%" stop-color="#FF00FF"/><stop offset="100%" stop-color="#0D1B2A"/>
    </linearGradient>
    <radialGradient id="multiverse-gradient" cx="50%" cy="50%">
        <stop offset="0%" stop-color="#FFD700"/><stop offset="40%" stop-color="#FF00FF"/>
        <stop offset="70%" stop-color="#00FFFF"/><stop offset="100%" stop-color="#000"/>
    </radialGradient>
    <linearGradient id="rift-gradient" x1="0%" y1="0%" x2="100%" y2="100%">
        <stop offset="0%" stop-color="#000"/><stop offset="30%" stop-color="#9400D3"/>
        <stop offset="50%" stop-color="#00FFFF"/><stop offset="70%" stop-color="#9400D3"/>
        <stop offset="100%" stop-color="#000"/>
    </linearGradient>
    <linearGradient id="heaven-gradient" x1="0%" y1="0%" x2="0%" y2="100%">
        <stop offset="0%" stop-color="#FFF"/><stop offset="50%" stop-color="#FFD700" stop-opacity="0.3"/>
        <stop offset="100%" stop-color="#F0F8FF"/>
    </linearGradient>
    <clipPath id="head-clip"><ellipse cx="200" cy="200" rx="110" ry="115"/></clipPath>
</defs>
<rect width="400" height="400" fill="#2C3E50"/>
<rect x="0" y="249" width="50" height="151" fill="#1A202C"/>
<rect x="22" y="259" width="6" height="8" fill="#FFD700" opacity="0.6"/>
<rect x="36" y="259" width="6" height="8" fill="#FFD700" opacity="0.6"/>
<rect x="22" y="277" width="6" height="8" fill="#FFD700" opacity="0.6"/>
<rect x="36" y="277" width="6" height="8" fill="#FFD700" opacity="0.6"/>
<rect x="22" y="295" width="6" height="8" fill="#FFD700" opacity="0.6"/>
<rect x="36" y="295" width="6" height="8" fill="#FFD700" opacity="0.6"/>
<rect x="22" y="313" width="6" height="8" fill="#FFD700" opacity="0.6"/>
<rect x="36" y="313" width="6" height="8" fill="#FFD700" opacity="0.6"/>
<rect x="22" y="331" width="6" height="8" fill="#FFD700" opacity="0.6"/>
<rect x="36" y="331" width="6" height="8" fill="#FFD700" opacity="0.6"/>
<rect x="22" y="349" width="6" height="8" fill="#FFD700" opacity="0.6"/>
<rect x="36" y="349" width="6" height="8" fill="#FFD700" opacity="0.6"/>
<rect x="22" y="367" width="6" height="8" fill="#FFD700" opacity="0.6"/>
<rect x="36" y="367" width="6" height="8" fill="#FFD700" opacity="0.6"/>
<rect x="22" y="385" width="6" height="8" fill="#FFD700" opacity="0.6"/>
<rect x="36" y="385" width="6" height="8" fill="#FFD700" opacity="0.6"/>
<rect x="60" y="258" width="50" height="142" fill="#1A202C"/>
<rect x="68" y="268" width="6" height="8" fill="#FFD700" opacity="0.6"/>
<rect x="96" y="268" width="6" height="8" fill="#FFD700" opacity="0.6"/>
<rect x="68" y="286" width="6" height="8" fill="#FFD700" opacity="0.6"/>
<rect x="96" y="286" width="6" height="8" fill="#FFD700" opacity="0.6"/>
<rect x="68" y="304" width="6" height="8" fill="#FFD700" opacity="0.6"/>
<rect x="96" y="304" width="6" height="8" fill="#FFD700" opacity="0.6"/>
<rect x="68" y="322" width="6" height="8" fill="#FFD700" opacity="0.6"/>
<rect x="96" y="322" width="6" height="8" fill="#FFD700" opacity="0.6"/>
<rect x="68" y="340" width="6" height="8" fill="#FFD700" opacity="0.6"/>
<rect x="96" y="340" width="6" height="8" fill="#FFD700" opacity="0.6"/>
<rect x="68" y="358" width="6" height="8" fill="#FFD700" opacity="0.6"/>
<rect x="96" y="358" width="6" height="8" fill="#FFD700" opacity="0.6"/>
<rect x="68" y="376" width="6" height="8" fill="#FFD700" opacity="0.6"/>
<rect x="96" y="376" width="6" height="8" fill="#FFD700" opacity="0.6"/>
<rect x="120" y="267" width="50" height="133" fill="#1A202C"/>
<rect x="128" y="277" width="6" height="8" fill="#FFD700" opacity="0.6"/>
<rect x="142" y="277" width="6" height="8" fill="#FFD700" opacity="0.6"/>
<rect x="128" y="295" width="6" height="8" fill="#FFD700" opacity="0.6"/>
<rect x="142" y="295" width="6" height="8" fill="#FFD700" opacity="0.6"/>
<rect x="128" y="313" width="6" height="8" fill="#FFD700" opacity="0.6"/>
<rect x="142" y="313" width="6" height="8" fill="#FFD700" opacity="0.6"/>
<rect x="128" y="331" width="6" height="8" fill="#FFD700" opacity="0.6"/>
<rect x="142" y="331" width="6" height="8" fill="#FFD700" opacity="0.6"/>
<rect x="128" y="349" width="6" height="8" fill="#FFD700" opacity="0.6"/>
<rect x="142" y="349" width="6" height="8" fill="#FFD700" opacity="0.6"/>
<rect x="128" y="367" width="6" height="8" fill="#FFD700" opacity="0.6"/>
<rect x="142" y="367" width="6" height="8" fill="#FFD700" opacity="0.6"/>
<rect x="128" y="385" width="6" height="8" fill="#FFD700" opacity="0.6"/>
<rect x="142" y="385" width="6" height="8" fill="#FFD700" opacity="0.6"/>
<rect x="180" y="276" width="50" height="124" fill="#1A202C"/>
<rect x="202" y="286" width="6" height="8" fill="#FFD700" opacity="0.6"/>
<rect x="216" y="286" width="6" height="8" fill="#FFD700" opacity="0.6"/>
<rect x="202" y="304" width="6" height="8" fill="#FFD700" opacity="0.6"/>
<rect x="216" y="304" width="6" height="8" fill="#FFD700" opacity="0.6"/>
<rect x="202" y="322" width="6" height="8" fill="#FFD700" opacity="0.6"/>
<rect x="216" y="322" width="6" height="8" fill="#FFD700" opacity="0.6"/>
<rect x="202" y="340" width="6" height="8" fill="#FFD700" opacity="0.6"/>
<rect x="216" y="340" width="6" height="8" fill="#FFD700" opacity="0.6"/>
<rect x="202" y="358" width="6" height="8" fill="#FFD700" opacity="0.6"/>
<rect x="216" y="358" width="6" height="8" fill="#FFD700" opacity="0.6"/>
<rect x="202" y="376" width="6" height="8" fill="#FFD700" opacity="0.6"/>
<rect x="216" y="376" width="6" height="8" fill="#FFD700" opacity="0.6"/>
<rect x="240" y="285" width="50" height="115" fill="#1A202C"/>
<rect x="248" y="295" width="6" height="8" fill="#FFD700" opacity="0.6"/>
<rect x="276" y="295" width="6" height="8" fill="#FFD700" opacity="0.6"/>
<rect x="248" y="313" width="6" height="8" fill="#FFD700" opacity="0.6"/>
<rect x="276" y="313" width="6" height="8" fill="#FFD700" opacity="0.6"/>
<rect x="248" y="331" width="6" height="8" fill="#FFD700" opacity="0.6"/>
<rect x="276" y="331" width="6" height="8" fill="#FFD700" opacity="0.6"/>
<rect x="248" y="349" width="6" height="8" fill="#FFD700" opacity="0.6"/>
<rect x="276" y="349" width="6" height="8" fill="#FFD700" opacity="0.6"/>
<rect x="248" y="367" width="6" height="8" fill="#FFD700" opacity="0.6"/>
<rect x="276" y="367" width="6" height="8" fill="#FFD700" opacity="0.6"/>
<rect x="248" y="385" width="6" height="8" fill="#FFD700" opacity="0.6"/>
<rect x="276" y="385" width="6" height="8" fill="#FFD700" opacity="0.6"/>
<rect x="300" y="294" width="50" height="106" fill="#1A202C"/>
<rect x="308" y="304" width="6" height="8" fill="#FFD700" opacity="0.6"/>
<rect x="322" y="304" width="6" height="8" fill="#FFD700" opacity="0.6"/>
<rect x="308" y="322" width="6" height="8" fill="#FFD700" opacity="0.6"/>
<rect x="322" y="322" width="6" height="8" fill="#FFD700" opacity="0.6"/>
<rect x="308" y="340" width="6" height="8" fill="#FFD700" opacity="0.6"/>
<rect x="322" y="340" width="6" height="8" fill="#FFD700" opacity="0.6"/>
<rect x="308" y="358" width="6" height="8" fill="#FFD700" opacity="0.6"/>
<rect x="322" y="358" width="6" height="8" fill="#FFD700" opacity="0.6"/>
<rect x="308" y="376" width="6" height="8" fill="#FFD700" opacity="0.6"/>
<rect x="322" y="376" width="6" height="8" fill="#FFD700" opacity="0.6"/>
<rect x="360" y="303" width="50" height="97" fill="#1A202C"/>
<rect x="382" y="313" width="6" height="8" fill="#FFD700" opacity="0.6"/>
<rect x="396" y="313" width="6" height="8" fill="#FFD700" opacity="0.6"/>
<rect x="382" y="331" width="6" height="8" fill="#FFD700" opacity="0.6"/>
<rect x="396" y="331" width="6" height="8" fill="#FFD700" opacity="0.6"/>
<rect x="382" y="349" width="6" height="8" fill="#FFD700" opacity="0.6"/>
<rect x="396" y="349" width="6" height="8" fill="#FFD700" opacity="0.6"/>
<rect x="382" y="367" width="6" height="8" fill="#FFD700" opacity="0.6"/>
<rect x="396" y="367" width="6" height="8" fill="#FFD700" opacity="0.6"/>
<rect x="382" y="385" width="6" height="8" fill="#FFD700" opacity="0.6"/>
<rect x="396" y="385" width="6" height="8" fill="#FFD700" opacity="0.6"/>

<ellipse cx="115" cy="140" rx="45" ry="50" fill="#C0C0C0" filter="url(#shadow)"/>
<ellipse cx="115" cy="140" rx="30" ry="35" fill="#FFB6C1"/>
<ellipse cx="115" cy="145" rx="18" ry="22" fill="#FF9999"/>
<ellipse cx="285" cy="140" rx="45" ry="50" fill="#C0C0C0" filter="url(#shadow)"/>
<ellipse cx="285" cy="140" rx="30" ry="35" fill="#FFB6C1"/>
<ellipse cx="285" cy="145" rx="18" ry="22" fill="#FF9999"/>
<ellipse cx="200" cy="200" rx="110" ry="115" fill="#C0C0C0" filter="url(#shadow)"/>
<ellipse cx="180" cy="140" rx="50" ry="30" fill="#E8E8E8" opacity="0.3"/>
<g clip-path="url(#head-clip)"><circle cx="110" cy="110" r="12" fill="#000" opacity="0.12"/><circle cx="227" cy="191" r="12" fill="#000" opacity="0.12"/><circle cx="164" cy="272" r="12" fill="#000" opacity="0.12"/><circle cx="281" cy="173" r="12" fill="#000" opacity="0.12"/><circle cx="218" cy="254" r="12" fill="#000" opacity="0.12"/><circle cx="155" cy="155" r="12" fill="#000" opacity="0.12"/><circle cx="272" cy="236" r="12" fill="#000" opacity="0.12"/><circle cx="209" cy="137" r="12" fill="#000" opacity="0.12"/><circle cx="146" cy="218" r="12" fill="#000" opacity="0.12"/><circle cx="263" cy="119" r="12" fill="#000" opacity="0.12"/></g>
<ellipse cx="200" cy="235" rx="70" ry="60" fill="#FFDAB9"/>
<ellipse cx="200" cy="250" rx="55" ry="40" fill="#DEB887" opacity="0.3"/>
<ellipse cx="162" cy="185" rx="22" ry="24" fill="#000" opacity="0.08"/>
<ellipse cx="238" cy="185" rx="22" ry="24" fill="#000" opacity="0.08"/>
<ellipse cx="162" cy="185" rx="18" ry="8" fill="white"/>
<ellipse cx="162" cy="187" rx="10" ry="5" fill="#3D2314"/>
<ellipse cx="238" cy="185" rx="18" ry="8" fill="white"/>
<ellipse cx="238" cy="187" rx="10" ry="5" fill="#3D2314"/>
<g>
            <ellipse cx="200" cy="230" rx="25" ry="18" fill="#8B4513"/>
            <ellipse cx="200" cy="230" rx="22" ry="15" fill="#A0522D"/>
            <ellipse cx="192" cy="230" rx="5" ry="7" fill="#5D2E0C"/>
            <ellipse cx="208" cy="230" rx="5" ry="7" fill="#5D2E0C"/>
        </g>
<path d="M178 260 Q200 268 222 260" stroke="#5D2E0C" stroke-width="2" fill="none"/>
<line x1="150" y1="158" x2="174" y2="158" stroke="#5D2E0C" stroke-width="2"/>
<line x1="226" y1="158" x2="250" y2="158" stroke="#5D2E0C" stroke-width="2"/>


<g transform="translate(325, 15)">
            <rect width="65" height="22" rx="4" fill="#A0A0A0" opacity="0.9"/>
            <text x="32" y="15" font-size="8" fill="#FFF" text-anchor="middle" font-family="sans-serif" font-weight="bold">COMMON</text>
        </g>
        <g transform="translate(10, 15)">
            <rect width="45" height="22" rx="4" fill="#333" opacity="0.8"/>
            <text x="22" y="15" font-size="9" fill="#FFF" text-anchor="middle" font-family="sans-serif">Gen 2</text>
        </g>
</svg>