<svg width="400" height="400" viewBox="0 0 400 400" xmlns="http://www.w3.org/2000/svg">
<defs>
    <filter id="shadow" x="-20%" y="-20%" width="140%" height="140%">
        <feDropShadow dx="2" dy="4" stdDeviation="3" flood-opacity="0.3"/>
    </filter>
    <filter id="glow" x="-50%" y="-50%" width="200%" height="200%">
        <feGaussianBlur stdDeviation="8" result="blur"/>
        <feMerge><feMergeNode in="blur"/><feMergeNode in="SourceGraphic"/></feMerge>
    </filter>
    <linearGradient id="rainbow-body" x1="0%" y1="0%" x2="100%" y2="100%">
        <stop offset="0%" stop-color="#FF6B6B"/><stop offset="25%" stop-color="#FFE66D"/>
        <stop offset="50%" stop-color="#4ECDC4"/><stop offset="75%" stop-color="#45B7D1"/>
        <stop offset="100%" stop-color="#DDA0DD"/>
    </linearGradient>
    <radialGradient id="galaxy-body" cx="30%" cy="30%">
        <stop offset="0%" stop-color="#E6E6FA"/><stop offset="50%" stop-color="#9370DB"/>
        <stop offset="100%" stop-color="#1A0033"/>
    </radialGradient>
    <linearGradient id="holo-body" x1="0%" y1="0%" x2="100%" y2="100%">
        <stop offset="0%" stop-color="#FF00FF"/><stop offset="50%" stop-color="#00FFFF"/>
        <stop offset="100%" stop-color="#FFFF00"/>
    </linearGradient>
    <linearGradient id="sky-gradient" x1="0%" y1="0%" x2="0%" y2="100%">
        <stop offset="0%" stop-color="#87CEEB"/><stop offset="100%" stop-color="#E0F4FF"/>
    </linearGradient>
    <linearGradient id="grass-gradient" x1="0%" y1="0%" x2="0%" y2="100%">
        <stop offset="0%" stop-color="#90EE90"/><stop offset="100%" stop-color="#228B22"/>
    </linearGradient>
    <linearGradient id="sunset-gradient" x1="0%" y1="0%" x2="0%" y2="100%">
        <stop offset="0%" stop-color="#FF6B6B"/><stop offset="50%" stop-color="#FFE66D"/>
        <stop offset="100%" stop-color="#4ECDC4"/>
    </linearGradient>
    <linearGradient id="aurora-gradient" x1="0%" y1="0%" x2="100%" y2="100%">
        <stop offset="0%" stop-color="#0D1B2A"/><stop offset="30%" stop-color="#00FF7F"/>
        <stop offset="70%" stop-color="#FF00FF"/><stop offset="100%" stop-color="#0D1B2A"/>
    </linearGradient>
    <radialGradient id="multiverse-gradient" cx="50%" cy="50%">
        <stop offset="0%" stop-color="#FFD700"/><stop offset="40%" stop-color="#FF00FF"/>
        <stop offset="70%" stop-color="#00FFFF"/><stop offset="100%" stop-color="#000"/>
    </radialGradient>
    <linearGradient id="rift-gradient" x1="0%" y1="0%" x2="100%" y2="100%">
        <stop offset="0%" stop-color="#000"/><stop offset="30%" stop-color="#9400D3"/>
        <stop offset="50%" stop-color="#00FFFF"/><stop offset="70%" stop-color="#9400D3"/>
        <stop offset="100%" stop-color="#000"/>
    </linearGradient>
    <linearGradient id="heaven-gradient" x1="0%" y1="0%" x2="0%" y2="100%">
        <stop offset="0%" stop-color="#FFF"/><stop offset="50%" stop-color="#FFD700" stop-opacity="0.3"/>
        <stop offset="100%" stop-color="#F0F8FF"/>
    </linearGradient>
    <clipPath id="head-clip"><ellipse cx="200" cy="200" rx="110" ry="115"/></clipPath>
</defs>
<rect width="400" height="400" fill="#2C3E50"/>
<rect x="0" y="323" width="50" height="77" fill="#1A202C"/>
<rect x="8" y="333" width="6" height="8" fill="#FFD700" opacity="0.6"/>
<rect x="36" y="333" width="6" height="8" fill="#FFD700" opacity="0.6"/>
<rect x="8" y="351" width="6" height="8" fill="#FFD700" opacity="0.6"/>
<rect x="36" y="351" width="6" height="8" fill="#FFD700" opacity="0.6"/>
<rect x="8" y="369" width="6" height="8" fill="#FFD700" opacity="0.6"/>
<rect x="36" y="369" width="6" height="8" fill="#FFD700" opacity="0.6"/>
<rect x="8" y="387" width="6" height="8" fill="#FFD700" opacity="0.6"/>
<rect x="36" y="387" width="6" height="8" fill="#FFD700" opacity="0.6"/>
<rect x="60" y="316" width="50" height="84" fill="#1A202C"/>
<rect x="68" y="326" width="6" height="8" fill="#FFD700" opacity="0.6"/>
<rect x="82" y="326" width="6" height="8" fill="#FFD700" opacity="0.6"/>
<rect x="68" y="344" width="6" height="8" fill="#FFD700" opacity="0.6"/>
<rect x="82" y="344" width="6" height="8" fill="#FFD700" opacity="0.6"/>
<rect x="68" y="362" width="6" height="8" fill="#FFD700" opacity="0.6"/>
<rect x="82" y="362" width="6" height="8" fill="#FFD700" opacity="0.6"/>
<rect x="68" y="380" width="6" height="8" fill="#FFD700" opacity="0.6"/>
<rect x="82" y="380" width="6" height="8" fill="#FFD700" opacity="0.6"/>
<rect x="120" y="309" width="50" height="91" fill="#1A202C"/>
<rect x="142" y="319" width="6" height="8" fill="#FFD700" opacity="0.6"/>
<rect x="156" y="319" width="6" height="8" fill="#FFD700" opacity="0.6"/>
<rect x="142" y="337" width="6" height="8" fill="#FFD700" opacity="0.6"/>
<rect x="156" y="337" width="6" height="8" fill="#FFD700" opacity="0.6"/>
<rect x="142" y="355" width="6" height="8" fill="#FFD700" opacity="0.6"/>
<rect x="156" y="355" width="6" height="8" fill="#FFD700" opacity="0.6"/>
<rect x="142" y="373" width="6" height="8" fill="#FFD700" opacity="0.6"/>
<rect x="156" y="373" width="6" height="8" fill="#FFD700" opacity="0.6"/>
<rect x="180" y="302" width="50" height="98" fill="#1A202C"/>
<rect x="188" y="312" width="6" height="8" fill="#FFD700" opacity="0.6"/>
<rect x="216" y="312" width="6" height="8" fill="#FFD700" opacity="0.6"/>
<rect x="188" y="330" width="6" height="8" fill="#FFD700" opacity="0.6"/>
<rect x="216" y="330" width="6" height="8" fill="#FFD700" opacity="0.6"/>
<rect x="188" y="348" width="6" height="8" fill="#FFD700" opacity="0.6"/>
<rect x="216" y="348" width="6" height="8" fill="#FFD700" opacity="0.6"/>
<rect x="188" y="366" width="6" height="8" fill="#FFD700" opacity="0.6"/>
<rect x="216" y="366" width="6" height="8" fill="#FFD700" opacity="0.6"/>
<rect x="188" y="384" width="6" height="8" fill="#FFD700" opacity="0.6"/>
<rect x="216" y="384" width="6" height="8" fill="#FFD700" opacity="0.6"/>
<rect x="240" y="295" width="50" height="105" fill="#1A202C"/>
<rect x="248" y="305" width="6" height="8" fill="#FFD700" opacity="0.6"/>
<rect x="262" y="305" width="6" height="8" fill="#FFD700" opacity="0.6"/>
<rect x="248" y="323" width="6" height="8" fill="#FFD700" opacity="0.6"/>
<rect x="262" y="323" width="6" height="8" fill="#FFD700" opacity="0.6"/>
<rect x="248" y="341" width="6" height="8" fill="#FFD700" opacity="0.6"/>
<rect x="262" y="341" width="6" height="8" fill="#FFD700" opacity="0.6"/>
<rect x="248" y="359" width="6" height="8" fill="#FFD700" opacity="0.6"/>
<rect x="262" y="359" width="6" height="8" fill="#FFD700" opacity="0.6"/>
<rect x="248" y="377" width="6" height="8" fill="#FFD700" opacity="0.6"/>
<rect x="262" y="377" width="6" height="8" fill="#FFD700" opacity="0.6"/>
<rect x="300" y="288" width="50" height="112" fill="#1A202C"/>
<rect x="322" y="298" width="6" height="8" fill="#FFD700" opacity="0.6"/>
<rect x="336" y="298" width="6" height="8" fill="#FFD700" opacity="0.6"/>
<rect x="322" y="316" width="6" height="8" fill="#FFD700" opacity="0.6"/>
<rect x="336" y="316" width="6" height="8" fill="#FFD700" opacity="0.6"/>
<rect x="322" y="334" width="6" height="8" fill="#FFD700" opacity="0.6"/>
<rect x="336" y="334" width="6" height="8" fill="#FFD700" opacity="0.6"/>
<rect x="322" y="352" width="6" height="8" fill="#FFD700" opacity="0.6"/>
<rect x="336" y="352" width="6" height="8" fill="#FFD700" opacity="0.6"/>
<rect x="322" y="370" width="6" height="8" fill="#FFD700" opacity="0.6"/>
<rect x="336" y="370" width="6" height="8" fill="#FFD700" opacity="0.6"/>
<rect x="322" y="388" width="6" height="8" fill="#FFD700" opacity="0.6"/>
<rect x="336" y="388" width="6" height="8" fill="#FFD700" opacity="0.6"/>
<rect x="360" y="281" width="50" height="119" fill="#1A202C"/>
<rect x="368" y="291" width="6" height="8" fill="#FFD700" opacity="0.6"/>
<rect x="396" y="291" width="6" height="8" fill="#FFD700" opacity="0.6"/>
<rect x="368" y="309" width="6" height="8" fill="#FFD700" opacity="0.6"/>
<rect x="396" y="309" width="6" height="8" fill="#FFD700" opacity="0.6"/>
<rect x="368" y="327" width="6" height="8" fill="#FFD700" opacity="0.6"/>
<rect x="396" y="327" width="6" height="8" fill="#FFD700" opacity="0.6"/>
<rect x="368" y="345" width="6" height="8" fill="#FFD700" opacity="0.6"/>
<rect x="396" y="345" width="6" height="8" fill="#FFD700" opacity="0.6"/>
<rect x="368" y="363" width="6" height="8" fill="#FFD700" opacity="0.6"/>
<rect x="396" y="363" width="6" height="8" fill="#FFD700" opacity="0.6"/>
<rect x="368" y="381" width="6" height="8" fill="#FFD700" opacity="0.6"/>
<rect x="396" y="381" width="6" height="8" fill="#FFD700" opacity="0.6"/>

<ellipse cx="115" cy="140" rx="45" ry="50" fill="#C0C0C0" filter="url(#shadow)"/>
<ellipse cx="115" cy="140" rx="30" ry="35" fill="#FFB6C1"/>
<ellipse cx="115" cy="145" rx="18" ry="22" fill="#FF9999"/>
<ellipse cx="285" cy="140" rx="45" ry="50" fill="#C0C0C0" filter="url(#shadow)"/>
<ellipse cx="285" cy="140" rx="30" ry="35" fill="#FFB6C1"/>
<ellipse cx="285" cy="145" rx="18" ry="22" fill="#FF9999"/>
<ellipse cx="200" cy="200" rx="110" ry="115" fill="#C0C0C0" filter="url(#shadow)"/>
<ellipse cx="180" cy="140" rx="50" ry="30" fill="#E8E8E8" opacity="0.3"/>
<g clip-path="url(#head-clip)"><ellipse cx="200" cy="200" rx="100" ry="105" fill="url(#aurora-gradient)" opacity="0.2"/></g>
<ellipse cx="200" cy="235" rx="70" ry="60" fill="#FFDAB9"/>
<ellipse cx="200" cy="250" rx="55" ry="40" fill="#DEB887" opacity="0.3"/>
<ellipse cx="162" cy="185" rx="22" ry="24" fill="#000" opacity="0.08"/>
<ellipse cx="238" cy="185" rx="22" ry="24" fill="#000" opacity="0.08"/>
<ellipse cx="162" cy="185" rx="20" ry="24" fill="white"/>
<circle cx="162" cy="185" r="14" fill="#3D2314"/>
<circle cx="162" cy="185" r="8" fill="#000"/>
<circle cx="167" cy="180" r="5" fill="white"/>
<ellipse cx="238" cy="185" rx="20" ry="24" fill="white"/>
<circle cx="238" cy="185" r="14" fill="#3D2314"/>
<circle cx="238" cy="185" r="8" fill="#000"/>
<circle cx="243" cy="180" r="5" fill="white"/>
<g>
            <ellipse cx="200" cy="230" rx="25" ry="18" fill="#8B4513"/>
            <ellipse cx="200" cy="230" rx="22" ry="15" fill="#A0522D"/>
            <ellipse cx="192" cy="230" rx="5" ry="7" fill="#5D2E0C"/>
            <ellipse cx="208" cy="230" rx="5" ry="7" fill="#5D2E0C"/>
        </g>
<path d="M170 260 Q200 285 230 260" stroke="#5D2E0C" stroke-width="4" fill="none"/>
<path d="M147 160 Q162 150 177 160" stroke="#5D2E0C" stroke-width="3" fill="none"/>
<path d="M223 160 Q238 150 253 160" stroke="#5D2E0C" stroke-width="3" fill="none"/>
<path d="M110 120 Q200 90 290 120" stroke="#E74C3C" stroke-width="12" fill="none"/><polygon points="105,125 90,160 115,150" fill="#E74C3C"/>
<circle cx="100" cy="100" r="3" fill="#FFD700" opacity="0.6"/><circle cx="191" cy="219" r="3" fill="#FFD700" opacity="0.6"/><circle cx="282" cy="138" r="3" fill="#FFD700" opacity="0.6"/><circle cx="173" cy="257" r="3" fill="#FFD700" opacity="0.6"/><circle cx="264" cy="176" r="3" fill="#FFD700" opacity="0.6"/><circle cx="155" cy="295" r="3" fill="#FFD700" opacity="0.6"/><circle cx="246" cy="214" r="3" fill="#FFD700" opacity="0.6"/><circle cx="137" cy="133" r="3" fill="#FFD700" opacity="0.6"/><circle cx="228" cy="252" r="3" fill="#FFD700" opacity="0.6"/><circle cx="119" cy="171" r="3" fill="#FFD700" opacity="0.6"/><circle cx="210" cy="290" r="3" fill="#FFD700" opacity="0.6"/><circle cx="101" cy="209" r="3" fill="#FFD700" opacity="0.6"/>
<g transform="translate(325, 15)">
            <rect width="65" height="22" rx="4" fill="#A0A0A0" opacity="0.9"/>
            <text x="32" y="15" font-size="8" fill="#FFF" text-anchor="middle" font-family="sans-serif" font-weight="bold">COMMON</text>
        </g>
        <g transform="translate(10, 15)">
            <rect width="45" height="22" rx="4" fill="#333" opacity="0.8"/>
            <text x="22" y="15" font-size="9" fill="#FFF" text-anchor="middle" font-family="sans-serif">Gen 2</text>
        </g>
</svg>